<mxfile host="app.diagrams.net" agent="Mozilla/5.0 (Macintosh; Intel Mac OS X 10_15_7) AppleWebKit/605.1.15 (KHTML, like Gecko) Version/17.5 Safari/605.1.15" version="24.7.6">
  <diagram name="Page-1" id="zYSe04mV8OuxdiawKMMM">
    <mxGraphModel dx="874" dy="748" grid="1" gridSize="10" guides="1" tooltips="1" connect="1" arrows="1" fold="1" page="1" pageScale="1" pageWidth="827" pageHeight="1169" math="0" shadow="0">
      <root>
        <mxCell id="0" />
        <mxCell id="1" parent="0" />
        <mxCell id="4H9lO5g5NjC4MBCiGy2D-6" style="edgeStyle=orthogonalEdgeStyle;rounded=0;orthogonalLoop=1;jettySize=auto;html=1;exitX=0.5;exitY=1;exitDx=0;exitDy=0;sketch=1;curveFitting=1;jiggle=2;fillColor=#ffe6cc;strokeColor=#d79b00;" edge="1" parent="1" source="4H9lO5g5NjC4MBCiGy2D-1" target="4H9lO5g5NjC4MBCiGy2D-2">
          <mxGeometry relative="1" as="geometry" />
        </mxCell>
        <mxCell id="4H9lO5g5NjC4MBCiGy2D-7" style="edgeStyle=orthogonalEdgeStyle;rounded=0;orthogonalLoop=1;jettySize=auto;html=1;exitX=0.6;exitY=1;exitDx=0;exitDy=0;entryX=0.5;entryY=0;entryDx=0;entryDy=0;exitPerimeter=0;sketch=1;curveFitting=1;jiggle=2;fillColor=#ffe6cc;strokeColor=#d79b00;" edge="1" parent="1" source="4H9lO5g5NjC4MBCiGy2D-1" target="4H9lO5g5NjC4MBCiGy2D-3">
          <mxGeometry relative="1" as="geometry" />
        </mxCell>
        <mxCell id="4H9lO5g5NjC4MBCiGy2D-1" value="XAFS_XRF" style="rounded=1;whiteSpace=wrap;html=1;sketch=1;curveFitting=1;jiggle=2;fillColor=#ffe6cc;strokeColor=#d79b00;" vertex="1" parent="1">
          <mxGeometry x="310" y="80" width="120" height="60" as="geometry" />
        </mxCell>
        <mxCell id="4H9lO5g5NjC4MBCiGy2D-8" style="edgeStyle=orthogonalEdgeStyle;rounded=0;orthogonalLoop=1;jettySize=auto;html=1;exitX=0.25;exitY=1;exitDx=0;exitDy=0;entryX=0.5;entryY=0;entryDx=0;entryDy=0;sketch=1;curveFitting=1;jiggle=2;fillColor=#ffe6cc;strokeColor=#d79b00;" edge="1" parent="1" source="4H9lO5g5NjC4MBCiGy2D-2" target="4H9lO5g5NjC4MBCiGy2D-4">
          <mxGeometry relative="1" as="geometry" />
        </mxCell>
        <mxCell id="4H9lO5g5NjC4MBCiGy2D-9" style="edgeStyle=orthogonalEdgeStyle;rounded=0;orthogonalLoop=1;jettySize=auto;html=1;exitX=0.75;exitY=1;exitDx=0;exitDy=0;entryX=0.5;entryY=0;entryDx=0;entryDy=0;sketch=1;curveFitting=1;jiggle=2;fillColor=#ffe6cc;strokeColor=#d79b00;" edge="1" parent="1" source="4H9lO5g5NjC4MBCiGy2D-2" target="4H9lO5g5NjC4MBCiGy2D-5">
          <mxGeometry relative="1" as="geometry" />
        </mxCell>
        <mxCell id="4H9lO5g5NjC4MBCiGy2D-2" value="XAFS_XRFSTEP" style="rounded=1;whiteSpace=wrap;html=1;sketch=1;curveFitting=1;jiggle=2;fillColor=#ffe6cc;strokeColor=#d79b00;" vertex="1" parent="1">
          <mxGeometry x="210" y="210" width="120" height="60" as="geometry" />
        </mxCell>
        <mxCell id="4H9lO5g5NjC4MBCiGy2D-11" style="edgeStyle=orthogonalEdgeStyle;rounded=0;orthogonalLoop=1;jettySize=auto;html=1;exitX=0.5;exitY=1;exitDx=0;exitDy=0;sketch=1;curveFitting=1;jiggle=2;fillColor=#ffe6cc;strokeColor=#d79b00;" edge="1" parent="1" source="4H9lO5g5NjC4MBCiGy2D-3" target="4H9lO5g5NjC4MBCiGy2D-10">
          <mxGeometry relative="1" as="geometry" />
        </mxCell>
        <mxCell id="4H9lO5g5NjC4MBCiGy2D-3" value="XAFS_XRFCONT" style="rounded=1;whiteSpace=wrap;html=1;sketch=1;curveFitting=1;jiggle=2;fillColor=#ffe6cc;strokeColor=#d79b00;" vertex="1" parent="1">
          <mxGeometry x="440" y="210" width="120" height="60" as="geometry" />
        </mxCell>
        <mxCell id="4H9lO5g5NjC4MBCiGy2D-4" value="ENGSCAN" style="rounded=1;whiteSpace=wrap;html=1;sketch=1;curveFitting=1;jiggle=2;fillColor=#ffe6cc;strokeColor=#d79b00;" vertex="1" parent="1">
          <mxGeometry x="130" y="360" width="120" height="60" as="geometry" />
        </mxCell>
        <mxCell id="4H9lO5g5NjC4MBCiGy2D-5" value="MAPSCAN" style="rounded=1;whiteSpace=wrap;html=1;sketch=1;curveFitting=1;jiggle=2;fillColor=#ffe6cc;strokeColor=#d79b00;" vertex="1" parent="1">
          <mxGeometry x="290" y="360" width="120" height="60" as="geometry" />
        </mxCell>
        <mxCell id="4H9lO5g5NjC4MBCiGy2D-10" value="ENGSCAN" style="rounded=1;whiteSpace=wrap;html=1;sketch=1;curveFitting=1;jiggle=2;fillColor=#ffe6cc;strokeColor=#d79b00;" vertex="1" parent="1">
          <mxGeometry x="440" y="360" width="120" height="60" as="geometry" />
        </mxCell>
      </root>
    </mxGraphModel>
  </diagram>
</mxfile>
